<svg xmlns="http://www.w3.org/2000/svg" width="37" height="36" viewBox="0 0 37 36" fill="none">
    <path d="M29.2917 28.5H7.70833V12H29.2917M24.6667 1.5V4.5H12.3333V1.5H9.25V4.5H7.70833C6.0125 4.5 4.625 5.85 4.625 7.5V28.5C4.625 30.165 6.0125 31.5 7.70833 31.5H29.2917C31.0029 31.5 32.375 30.165 32.375 28.5V7.5C32.375 5.85 31.0029 4.5 29.2917 4.5H27.75V1.5M16.7733 18H11.2079L15.7096 21.165L13.9983 26.34L18.5 23.145L23.0017 26.34L21.275 21.18L25.7767 18H20.2267L18.5 12.84L16.7733 18Z" fill="white"/>
  </svg>