<svg xmlns="http://www.w3.org/2000/svg" width="44" height="45" viewBox="0 0 44 45" fill="none">
  <path d="M31.1667 19.6875V13.125C31.1667 12.6277 30.9735 12.1508 30.6297 11.7992C30.2859 11.4475 29.8196 11.25 29.3333 11.25H7.33333C6.8471 11.25 6.38079 11.4475 6.03697 11.7992C5.69315 12.1508 5.5 12.6277 5.5 13.125V31.875C5.5 32.3723 5.69315 32.8492 6.03697 33.2008C6.38079 33.5525 6.8471 33.75 7.33333 33.75H29.3333C29.8196 33.75 30.2859 33.5525 30.6297 33.2008C30.9735 32.8492 31.1667 32.3723 31.1667 31.875V25.3125L38.5 32.8125V12.1875L31.1667 19.6875ZM25.6667 24.375H20.1667V30H16.5V24.375H11V20.625H16.5V15H20.1667V20.625H25.6667V24.375Z" fill="white"/>
</svg>