<svg width="39" height="39" viewBox="0 0 39 39" fill="none" xmlns="http://www.w3.org/2000/svg">
<g id="information">
<path id="Vector" d="M17.875 14.625H21.125V11.375H17.875M19.5 32.5C12.3337 32.5 6.5 26.6663 6.5 19.5C6.5 12.3337 12.3337 6.5 19.5 6.5C26.6663 6.5 32.5 12.3337 32.5 19.5C32.5 26.6663 26.6663 32.5 19.5 32.5ZM19.5 3.25C17.366 3.25 15.2529 3.67032 13.2814 4.48696C11.3099 5.3036 9.51847 6.50056 8.00951 8.00951C4.96205 11.057 3.25 15.1902 3.25 19.5C3.25 23.8098 4.96205 27.943 8.00951 30.9905C9.51847 32.4994 11.3099 33.6964 13.2814 34.513C15.2529 35.3297 17.366 35.75 19.5 35.75C23.8098 35.75 27.943 34.038 30.9905 30.9905C34.038 27.943 35.75 23.8098 35.75 19.5C35.75 17.366 35.3297 15.2529 34.513 13.2814C33.6964 11.3099 32.4994 9.51847 30.9905 8.00951C29.4815 6.50056 27.6901 5.3036 25.7186 4.48696C23.7471 3.67032 21.634 3.25 19.5 3.25ZM17.875 27.625H21.125V17.875H17.875V27.625Z" fill="white"/>
</g>
</svg>
